<svg width="20" height="20" viewBox="0 0 20 20" fill="none" xmlns="http://www.w3.org/2000/svg">
<path d="M19.944 5.8767C19.896 4.81185 19.7239 4.08327 19.4799 3.44676C19.2238 2.79023 18.8838 2.22978 18.3277 1.67734C17.7716 1.1249 17.2154 0.776621 16.5593 0.52442C15.9232 0.276221 15.195 0.108086 14.1308 0.060048C13.0626 0.0120096 12.7225 0 10.01 0C7.29346 0 6.95339 0.0120096 5.88918 0.060048C4.82496 0.108086 4.09682 0.280224 3.46069 0.52442C2.80056 0.780625 2.24045 1.1209 1.68834 1.67734C1.13623 2.23379 0.788156 2.79023 0.536106 3.44676C0.292057 4.08327 0.120023 4.81185 0.072013 5.8767C0.0240034 6.94556 0.012001 7.28583 0.012001 10C0.012001 12.7182 0.0240034 13.0584 0.072013 14.1233C0.120023 15.1882 0.292057 15.9167 0.536106 16.5532C0.792157 17.2098 1.13223 17.7702 1.68834 18.3227C2.24045 18.8791 2.80056 19.2234 3.45669 19.4756C4.09282 19.7238 4.82096 19.8919 5.88518 19.94C6.95339 19.988 7.29346 20 10.006 20C12.7225 20 13.0626 19.988 14.1268 19.94C15.191 19.8919 15.9192 19.7198 16.5553 19.4756C17.2114 19.2194 17.7716 18.8791 18.3237 18.3227C18.8758 17.7662 19.2238 17.2098 19.4759 16.5532C19.7239 15.9167 19.892 15.1882 19.94 14.1233C19.988 13.0544 20 12.7142 20 10C20 7.28583 19.992 6.94155 19.944 5.8767ZM18.1476 14.0432C18.1036 15.02 17.9396 15.5524 17.8036 15.9007C17.6235 16.3651 17.4035 16.7014 17.0514 17.0536C16.6993 17.4059 16.3673 17.6181 15.8992 17.8062C15.5471 17.9424 15.015 18.1065 14.0428 18.1505C12.9906 18.1986 12.6745 18.2106 10.002 18.2106C7.32946 18.2106 7.0134 18.1986 5.96119 18.1505C4.985 18.1065 4.45289 17.9424 4.10482 17.8062C3.64073 17.6261 3.30466 17.4059 2.95259 17.0536C2.60052 16.7014 2.38848 16.3691 2.20044 15.9007C2.06441 15.5484 1.90038 15.016 1.85637 14.0432C1.80836 12.9904 1.79636 12.6741 1.79636 10C1.79636 7.32586 1.80836 7.00961 1.85637 5.95677C1.90038 4.97998 2.06441 4.44756 2.20044 4.09928C2.38047 3.63491 2.60052 3.29864 2.95259 2.94636C3.30466 2.59408 3.63673 2.38191 4.10482 2.19376C4.45689 2.05765 4.989 1.89352 5.96119 1.84948C7.0134 1.80144 7.32946 1.78943 10.002 1.78943C12.6745 1.78943 12.9906 1.80144 14.0428 1.84948C15.019 1.89352 15.5511 2.05765 15.8992 2.19376C16.3633 2.3739 16.6993 2.59408 17.0514 2.94636C17.4035 3.29864 17.6155 3.63091 17.8036 4.09928C17.9396 4.45156 18.1036 4.98399 18.1476 5.95677C18.1956 7.00961 18.2076 7.32586 18.2076 10C18.2076 12.6741 18.1916 12.9904 18.1476 14.0432Z" fill="#18181B"/>
<path d="M10.002 4.85986C7.16146 4.85986 4.86501 7.1617 4.86501 9.99998C4.86501 12.8422 7.16547 15.1401 10.002 15.1401C12.8386 15.1401 15.1391 12.8342 15.1391 9.99998C15.1391 7.1577 12.8426 4.85986 10.002 4.85986ZM10.002 13.3346C8.16166 13.3346 6.66937 11.8414 6.66937 9.99998C6.66937 8.1585 8.16166 6.66531 10.002 6.66531C11.8424 6.66531 13.3347 8.1585 13.3347 9.99998C13.3347 11.8414 11.8424 13.3346 10.002 13.3346Z" fill="#18181B"/>
<path d="M15.3391 5.86091C16.002 5.86091 16.5393 5.32322 16.5393 4.65995C16.5393 3.99667 16.002 3.45898 15.3391 3.45898C14.6762 3.45898 14.1388 3.99667 14.1388 4.65995C14.1388 5.32322 14.6762 5.86091 15.3391 5.86091Z" fill="#18181B"/>
<path d="M0 10C0 12.7182 0.0120024 13.0584 0.060012 14.1233C0.108022 15.1882 0.280056 15.9167 0.524105 16.5532C0.780156 17.2098 1.12022 17.7702 1.67634 18.3227C2.22845 18.8751 2.78856 19.2234 3.44469 19.4756C4.08082 19.7238 4.80896 19.8919 5.87318 19.94C6.94139 19.988 7.28146 20 9.994 20C12.7105 20 13.0506 19.988 14.1148 19.94C15.179 19.8919 15.9072 19.7198 16.5433 19.4756C17.1994 19.2194 17.7596 18.8791 18.3117 18.3227C18.8638 17.7702 19.2118 17.2098 19.4639 16.5532C19.7119 15.9167 19.88 15.1882 19.928 14.1233C19.976 13.0544 19.988 12.7142 19.988 10C19.988 7.28183 19.976 6.94155 19.928 5.8767C19.88 4.81185 19.7079 4.08327 19.4639 3.44676C19.2078 2.79023 18.8678 2.22978 18.3117 1.67734C17.7636 1.1209 17.2034 0.776621 16.5473 0.52442C15.9112 0.276221 15.183 0.108086 14.1188 0.060048C13.0506 0.0120096 12.7105 0 9.998 0C7.28146 0 6.94139 0.0120096 5.87718 0.060048C4.81296 0.108086 4.08482 0.280224 3.44869 0.52442C2.79256 0.780625 2.23245 1.1209 1.68034 1.67734C1.12823 2.23379 0.780156 2.79023 0.528106 3.44676C0.280056 4.08327 0.108022 4.81185 0.060012 5.8767C0.0120024 6.94155 0 7.28183 0 10ZM1.80436 10C1.80436 7.32986 1.81636 7.00961 1.86437 5.95677C1.90838 4.97998 2.07241 4.44756 2.20844 4.09928C2.38848 3.63491 2.60852 3.29864 2.96059 2.94636C3.31266 2.59408 3.64473 2.38191 4.11282 2.19376C4.46489 2.05765 4.997 1.89352 5.96919 1.84948C7.0214 1.80144 7.33747 1.78943 10.01 1.78943C12.6825 1.78943 12.9986 1.80144 14.0508 1.84948C15.027 1.89352 15.5591 2.05765 15.9072 2.19376C16.3713 2.3739 16.7073 2.59408 17.0594 2.94636C17.4115 3.29864 17.6235 3.63091 17.8116 4.09928C17.9476 4.45156 18.1116 4.98399 18.1556 5.95677C18.2036 7.00961 18.2156 7.32586 18.2156 10C18.2156 12.6741 18.2036 12.9904 18.1556 14.0432C18.1116 15.02 17.9476 15.5524 17.8116 15.9007C17.6315 16.3651 17.4115 16.7014 17.0594 17.0536C16.7073 17.4059 16.3753 17.6181 15.9072 17.8062C15.5551 17.9424 15.023 18.1065 14.0508 18.1505C12.9986 18.1986 12.6825 18.2106 10.01 18.2106C7.33747 18.2106 7.0214 18.1986 5.96919 18.1505C4.993 18.1065 4.46089 17.9424 4.11282 17.8062C3.64873 17.6261 3.31266 17.4059 2.96059 17.0536C2.60852 16.7014 2.39648 16.3691 2.20844 15.9007C2.07241 15.5484 1.90838 15.016 1.86437 14.0432C1.81236 12.9904 1.80436 12.6701 1.80436 10Z" fill="#18181B"/>
</svg>
